<svg id="visual" viewBox="0 0 3840 2160" width="3840" height="2160" xmlns="http://www.w3.org/2000/svg" xmlns:xlink="http://www.w3.org/1999/xlink" version="1.1"><rect x="0" y="0" width="3840" height="2160" fill="#004f59"></rect><path d="M0 904L91.5 883C183 862 366 820 548.8 833C731.7 846 914.3 914 1097.2 946.3C1280 978.7 1463 975.3 1645.8 947.2C1828.7 919 2011.3 866 2194.2 884.5C2377 903 2560 993 2742.8 1070C2925.7 1147 3108.3 1211 3291.2 1161C3474 1111 3657 947 3748.5 865L3840 783L3840 2161L3748.5 2161C3657 2161 3474 2161 3291.2 2161C3108.3 2161 2925.7 2161 2742.8 2161C2560 2161 2377 2161 2194.2 2161C2011.3 2161 1828.7 2161 1645.8 2161C1463 2161 1280 2161 1097.2 2161C914.3 2161 731.7 2161 548.8 2161C366 2161 183 2161 91.5 2161L0 2161Z" fill="#e56a54"></path><path d="M0 1215L91.5 1210.3C183 1205.7 366 1196.3 548.8 1198.2C731.7 1200 914.3 1213 1097.2 1238C1280 1263 1463 1300 1645.8 1284.5C1828.7 1269 2011.3 1201 2194.2 1189.3C2377 1177.7 2560 1222.3 2742.8 1250.3C2925.7 1278.3 3108.3 1289.7 3291.2 1291.5C3474 1293.3 3657 1285.7 3748.5 1281.8L3840 1278L3840 2161L3748.5 2161C3657 2161 3474 2161 3291.2 2161C3108.3 2161 2925.7 2161 2742.8 2161C2560 2161 2377 2161 2194.2 2161C2011.3 2161 1828.7 2161 1645.8 2161C1463 2161 1280 2161 1097.2 2161C914.3 2161 731.7 2161 548.8 2161C366 2161 183 2161 91.5 2161L0 2161Z" fill="#f58a50"></path><path d="M0 1489L91.5 1457.7C183 1426.3 366 1363.7 548.8 1376.2C731.7 1388.7 914.3 1476.3 1097.2 1473.2C1280 1470 1463 1376 1645.8 1385.7C1828.7 1395.3 2011.3 1508.7 2194.2 1534.7C2377 1560.7 2560 1499.3 2742.8 1451.3C2925.7 1403.3 3108.3 1368.7 3291.2 1381.3C3474 1394 3657 1454 3748.5 1484L3840 1514L3840 2161L3748.5 2161C3657 2161 3474 2161 3291.2 2161C3108.3 2161 2925.7 2161 2742.8 2161C2560 2161 2377 2161 2194.2 2161C2011.3 2161 1828.7 2161 1645.8 2161C1463 2161 1280 2161 1097.2 2161C914.3 2161 731.7 2161 548.8 2161C366 2161 183 2161 91.5 2161L0 2161Z" fill="#ffac50"></path><path d="M0 1600L91.5 1629.8C183 1659.7 366 1719.3 548.8 1742.8C731.7 1766.3 914.3 1753.7 1097.2 1736.7C1280 1719.7 1463 1698.3 1645.8 1712.7C1828.7 1727 2011.3 1777 2194.2 1777.2C2377 1777.3 2560 1727.7 2742.8 1715.8C2925.7 1704 3108.3 1730 3291.2 1708.8C3474 1687.7 3657 1619.3 3748.5 1585.2L3840 1551L3840 2161L3748.5 2161C3657 2161 3474 2161 3291.2 2161C3108.3 2161 2925.7 2161 2742.8 2161C2560 2161 2377 2161 2194.2 2161C2011.3 2161 1828.7 2161 1645.8 2161C1463 2161 1280 2161 1097.2 2161C914.3 2161 731.7 2161 548.8 2161C366 2161 183 2161 91.5 2161L0 2161Z" fill="#ffcf57"></path><path d="M0 1985L91.5 1989C183 1993 366 2001 548.8 1978.3C731.7 1955.7 914.3 1902.3 1097.2 1856.5C1280 1810.7 1463 1772.3 1645.8 1765.2C1828.7 1758 2011.3 1782 2194.2 1793C2377 1804 2560 1802 2742.8 1812C2925.7 1822 3108.3 1844 3291.2 1856C3474 1868 3657 1870 3748.5 1871L3840 1872L3840 2161L3748.5 2161C3657 2161 3474 2161 3291.2 2161C3108.3 2161 2925.7 2161 2742.8 2161C2560 2161 2377 2161 2194.2 2161C2011.3 2161 1828.7 2161 1645.8 2161C1463 2161 1280 2161 1097.2 2161C914.3 2161 731.7 2161 548.8 2161C366 2161 183 2161 91.5 2161L0 2161Z" fill="#fff36a"></path></svg>